<?xml version="1.0" standalone="no"?>
<!DOCTYPE svg PUBLIC "-//W3C//DTD SVG 20010904//EN"
 "http://www.w3.org/TR/2001/REC-SVG-20010904/DTD/svg10.dtd">
<svg version="1.0" xmlns="http://www.w3.org/2000/svg"
 width="1024.000000pt" height="1024.000000pt" viewBox="0 0 1024.000000 1024.000000"
 preserveAspectRatio="xMidYMid meet">

<g transform="translate(0.000000,1024.000000) scale(0.100000,-0.100000)"
fill="#000000" stroke="none">
<path d="M5149 9166 c-2 -2 -46 -6 -97 -10 -340 -24 -744 -142 -1105 -322
-171 -85 -270 -146 -414 -251 -533 -389 -920 -918 -1102 -1508 -143 -466 -180
-1005 -100 -1460 46 -258 123 -503 225 -714 35 -73 64 -139 64 -146 0 -10 -65
-14 -302 -18 -325 -5 -359 -9 -455 -61 -117 -64 -191 -158 -235 -299 l-23 -72
0 -1320 c0 -1252 1 -1324 19 -1392 44 -174 178 -319 345 -375 l66 -22 3235 2
c2325 2 3249 5 3285 13 147 33 266 129 334 271 21 46 44 107 50 136 8 37 11
457 11 1364 0 1159 -2 1317 -16 1371 -52 200 -204 346 -394 376 -36 6 -170 11
-297 11 -128 0 -233 2 -233 4 0 1 24 54 54 117 136 288 231 622 268 944 16
145 16 551 0 685 -74 595 -322 1173 -686 1597 -373 434 -826 739 -1376 925
-327 111 -615 158 -961 158 -86 0 -158 -2 -160 -4z m556 -246 c44 -6 150 -29
235 -50 423 -105 805 -291 1130 -549 120 -95 339 -314 451 -451 70 -85 219
-299 219 -314 0 -2 16 -30 35 -62 52 -86 45 -124 -25 -124 -55 0 -98 37 -185
161 -112 161 -173 239 -276 356 -295 332 -714 603 -1168 753 -308 103 -493
133 -806 134 -258 0 -478 -33 -735 -111 -314 -94 -648 -270 -910 -479 -193
-154 -428 -411 -584 -639 -62 -90 -102 -132 -148 -156 -51 -26 -86 -25 -97 3
-12 32 0 66 52 145 24 37 70 108 101 157 99 154 276 364 416 493 184 170 465
360 688 465 289 137 592 231 862 268 196 28 560 28 745 0z m-222 -569 c143
-79 478 -261 792 -431 94 -50 174 -96 180 -101 5 -5 -168 -9 -444 -9 l-453 0
-33 34 c-54 56 -110 80 -185 79 -221 -1 -327 -259 -171 -414 87 -88 212 -99
311 -28 47 34 76 77 92 137 l12 42 573 0 574 0 392 -211 c216 -117 427 -232
470 -257 l78 -45 -168 -91 -168 -91 -2 -470 -2 -470 31 -32 c25 -26 32 -43 36
-86 8 -97 -46 -157 -143 -157 -67 0 -111 27 -137 86 -17 40 -18 52 -8 92 6 25
22 59 36 75 l24 29 -2 561 -3 561 -80 46 c-44 26 -180 102 -302 169 l-221 122
-104 -52 c-106 -53 -343 -179 -838 -446 -251 -136 -287 -153 -305 -142 -11 7
-156 88 -323 181 -167 93 -397 221 -510 285 -114 64 -233 131 -264 147 l-57
31 -58 -28 c-57 -28 -509 -268 -590 -314 -24 -13 -43 -30 -43 -37 0 -11 344
-196 363 -196 3 0 10 13 17 30 17 40 79 95 126 111 22 7 75 13 119 13 89 0
142 -19 175 -62 20 -24 20 -44 20 -992 0 -1089 4 -1026 -76 -1106 -104 -104
-286 -91 -388 27 -69 81 -66 46 -67 934 0 440 -4 816 -8 835 -6 33 -15 39
-251 165 -135 72 -303 163 -374 202 l-129 71 44 22 c70 35 290 155 464 253 88
50 255 143 370 207 116 64 359 199 540 300 399 223 907 499 918 499 5 1 72
-34 150 -78z m1497 -1298 c3 -3 5 -453 5 -1001 l0 -997 -21 -46 c-31 -67 -88
-125 -142 -146 -95 -36 -212 -12 -279 58 -67 70 -63 7 -63 1089 0 674 3 988
11 1001 5 11 25 29 42 40 30 19 43 20 237 13 113 -3 207 -8 210 -11z m-4213
-65 c29 -27 29 -48 -2 -189 -63 -281 -80 -436 -79 -699 1 -365 67 -670 214
-979 40 -85 60 -139 60 -164 0 -34 -4 -40 -36 -53 -73 -30 -110 6 -189 184
-151 342 -210 634 -210 1037 0 269 21 450 81 690 32 128 41 151 72 175 32 26
60 25 89 -2z m5187 11 c25 -12 44 -43 65 -109 16 -52 67 -311 83 -420 19 -141
17 -533 -5 -690 -22 -157 -84 -402 -137 -545 -49 -133 -131 -305 -152 -323
-29 -24 -81 -26 -108 -4 -36 29 -29 71 29 193 101 210 200 563 213 757 1 19 5
35 9 37 3 3 6 100 7 217 1 274 -13 381 -85 681 l-36 148 20 27 c11 15 31 30
44 33 13 4 25 7 26 8 1 1 13 -4 27 -10z m-3335 -220 c37 -35 51 -81 51 -171 0
-147 -29 -198 -112 -198 -83 0 -108 42 -108 182 0 106 14 162 48 189 34 26 92
25 121 -2z m381 -7 c64 -65 68 -267 5 -339 -19 -23 -31 -28 -70 -28 -39 0 -51
5 -70 28 -30 34 -45 86 -45 154 0 133 43 213 115 213 27 0 44 -8 65 -28z m709
13 c43 -22 61 -78 61 -191 0 -98 -10 -133 -46 -165 -27 -23 -59 -29 -100 -18
-67 19 -96 113 -75 245 18 118 82 170 160 129z m308 -15 c9 -17 13 -77 13
-186 0 -135 -3 -164 -16 -175 -11 -9 -20 -10 -32 -2 -14 8 -17 31 -20 137 l-3
126 -27 -2 c-31 -2 -52 8 -52 24 0 18 94 109 110 106 8 -2 20 -14 27 -28z
m282 16 c8 -9 11 -69 9 -191 -3 -159 -5 -179 -21 -189 -14 -9 -21 -7 -32 7
-10 14 -12 48 -7 144 l5 126 -24 -7 c-46 -14 -54 -12 -57 16 -3 23 3 32 33 49
19 12 40 30 46 40 12 22 32 25 48 5z m-1031 -192 c6 -104 28 -139 68 -109 14
10 20 30 24 82 l5 68 34 3 34 3 -5 -81 c-6 -94 -24 -128 -82 -147 -50 -17 -98
3 -122 49 -22 43 -32 167 -14 178 27 17 55 -5 58 -46z m-654 -335 c43 -34 59
-75 59 -159 2 -141 -35 -210 -112 -210 -81 0 -111 53 -111 195 0 75 4 104 19
134 31 61 96 79 145 40z m344 9 c8 -8 12 -65 12 -190 0 -156 -2 -179 -16 -185
-9 -3 -24 -2 -33 4 -13 9 -16 32 -15 147 l1 136 -32 -6 c-39 -7 -62 14 -42 39
17 23 79 65 98 66 8 1 20 -4 27 -11z m406 0 c42 -19 66 -82 66 -174 0 -138
-26 -191 -97 -201 -51 -7 -84 11 -110 60 -26 48 -25 208 2 262 30 59 83 79
139 53z m366 -16 c48 -48 63 -150 39 -261 -19 -90 -93 -126 -166 -81 -43 26
-56 73 -52 192 3 79 8 102 25 125 44 59 109 70 154 25z m308 12 c39 -27 53
-69 55 -162 1 -118 -7 -155 -44 -186 -51 -43 -131 -28 -159 31 -18 39 -25 201
-10 247 23 72 104 108 158 70z m270 -176 c2 -177 1 -188 -17 -198 -15 -8 -24
-6 -37 7 -15 15 -16 32 -10 151 7 127 6 134 -11 127 -31 -13 -45 -11 -57 8 -9
15 -4 24 34 58 31 26 53 38 70 36 l25 -2 3 -187z m-3 -362 c3 -11 4 -100 3
-196 l-3 -175 -27 -3 c-37 -4 -42 18 -33 164 7 130 6 136 -35 114 -14 -7 -23
-6 -33 5 -18 18 -11 54 12 63 9 3 31 18 48 33 36 31 60 29 68 -5z m-1728 16
c8 -5 12 -65 15 -191 3 -160 1 -185 -13 -194 -9 -6 -24 -7 -33 -4 -14 5 -16
26 -16 146 l0 140 -33 -6 c-48 -7 -67 18 -35 47 74 67 92 77 115 62z m398 -6
c50 -21 68 -64 73 -172 7 -148 -25 -214 -104 -214 -84 0 -125 66 -124 202 1
96 33 167 85 189 28 11 31 11 70 -5z m367 -31 c4 -22 7 -103 7 -181 1 -149 -7
-180 -45 -172 -18 3 -19 14 -22 145 l-3 142 -32 -6 c-22 -3 -37 0 -45 10 -18
21 -6 41 38 66 22 12 40 27 40 32 0 6 12 9 27 7 24 -3 29 -9 35 -43z m353
-155 l0 -195 -25 0 -25 0 -3 142 -3 142 -37 -2 c-31 -2 -37 1 -40 20 -2 16 7
28 37 48 23 14 41 30 41 36 0 6 12 9 28 7 l27 -3 0 -195z m319 184 c13 -13 16
-44 16 -187 0 -95 -4 -178 -9 -185 -4 -8 -19 -12 -32 -10 -24 3 -24 4 -27 144
l-3 141 -37 -1 c-31 -1 -38 3 -40 21 -2 16 7 28 37 47 21 14 42 30 46 36 9 15
31 12 49 -6z m-1391 -532 c36 -37 47 -80 47 -175 0 -122 -36 -182 -111 -182
-57 0 -95 42 -110 119 -12 67 -4 167 17 208 33 64 111 79 157 30z m374 4 c37
-31 53 -84 53 -172 0 -118 -28 -173 -98 -191 -34 -8 -88 20 -108 58 -20 40
-29 129 -19 205 13 108 102 159 172 100z m378 2 c41 -32 55 -76 55 -170 0 -61
-6 -95 -20 -126 -40 -87 -140 -91 -184 -7 -30 57 -30 214 0 265 35 61 99 77
149 38z m346 1 c36 -36 51 -88 51 -177 -1 -98 -6 -118 -40 -154 -51 -55 -139
-41 -168 28 -40 96 -23 260 32 303 36 28 97 28 125 0z m322 1 c42 -33 60 -97
55 -193 -5 -106 -26 -146 -86 -167 -38 -13 -46 -13 -69 0 -53 30 -67 62 -71
166 -7 148 28 212 114 214 17 0 43 -9 57 -20z m262 9 c10 -16 6 -352 -4 -362
-5 -5 -17 -7 -27 -5 -17 3 -19 16 -22 142 -2 126 -4 137 -20 131 -30 -13 -44
-10 -56 8 -9 15 -6 22 19 42 17 14 37 31 45 39 18 17 56 20 65 5z m-212 -631
c16 -18 17 -54 17 -424 l0 -404 193 0 c163 0 197 -3 226 -18 64 -32 63 -119
-1 -141 -19 -7 -129 -11 -278 -11 -229 0 -250 1 -271 19 l-24 19 -3 458 c-2
324 1 466 9 486 20 49 96 59 132 16z m-2937 -9 c48 -45 51 -120 7 -164 -56
-55 -150 -38 -180 33 -45 107 90 209 173 131z m428 17 c45 -19 66 -52 66 -102
0 -84 -76 -133 -154 -100 -66 27 -82 110 -34 171 35 44 70 53 122 31z m3563
-12 c50 -32 59 -125 17 -167 -55 -55 -151 -40 -179 27 -20 48 -19 67 8 107 40
60 96 72 154 33z m481 -19 c86 -92 -15 -225 -130 -171 -80 38 -79 157 2 199
47 24 87 15 128 -28z m-3183 -54 c56 -25 111 -89 129 -152 21 -69 20 -91 -5
-123 -43 -54 -129 -18 -129 55 0 15 -11 41 -24 56 -21 24 -32 28 -76 28 -44 0
-55 -4 -76 -28 l-24 -28 0 -260 0 -260 25 -24 c18 -19 35 -25 68 -25 60 0 95
28 104 83 7 45 41 87 71 87 11 0 31 -9 46 -21 22 -17 26 -28 26 -72 -1 -99
-58 -184 -148 -217 -140 -53 -286 16 -327 154 -18 61 -21 522 -4 589 37 148
198 221 344 158z m565 18 c65 -15 117 -55 148 -113 27 -51 27 -51 30 -311 2
-143 1 -284 -3 -312 -22 -181 -243 -266 -377 -145 -76 68 -78 77 -78 417 0
271 2 304 19 340 26 55 70 94 133 116 62 21 68 22 128 8z m584 -3 c66 -20 110
-57 140 -118 l26 -52 0 -290 c0 -284 -1 -292 -24 -341 -47 -102 -143 -149
-257 -126 -69 15 -119 54 -153 123 l-26 52 0 280 c0 167 4 296 11 319 19 68
97 139 174 158 46 11 58 10 109 -5z m-1880 -347 c39 -31 49 -63 32 -103 -8
-19 -20 -37 -27 -42 -8 -5 -362 -11 -786 -14 l-773 -5 -26 -27 c-46 -45 -28
-126 32 -148 15 -6 324 -10 778 -10 740 0 754 0 779 -20 53 -42 43 -120 -18
-146 -30 -12 -147 -14 -823 -12 -785 3 -787 3 -827 25 -183 98 -194 376 -19
484 19 11 47 25 62 29 15 5 379 9 808 9 l781 1 27 -21z m4791 -5 c61 -33 93
-68 122 -132 53 -114 24 -247 -70 -327 -78 -67 -59 -66 -900 -63 -749 3 -757
3 -777 24 -11 11 -23 37 -27 57 -5 31 -1 40 25 67 l30 30 732 0 c780 0 783 0
809 48 14 26 14 68 1 93 -27 50 -16 49 -803 49 -717 0 -735 0 -760 20 -31 25
-42 65 -26 102 25 60 -8 58 834 55 766 -2 770 -2 810 -23z m-43 -987 c63 -31
114 -84 150 -156 23 -45 23 -51 23 -396 l0 -350 -27 -56 c-36 -71 -89 -125
-158 -158 l-55 -26 -3120 0 -3120 0 -57 28 c-70 34 -130 100 -160 176 -22 54
-23 66 -23 381 0 249 3 334 14 365 35 103 118 186 210 211 36 10 721 12 3156
11 l3110 -2 57 -28z m-5263 -1489 c38 -37 48 -83 28 -131 -27 -64 -101 -90
-162 -57 -70 38 -73 162 -6 205 47 30 98 24 140 -17z m802 -73 c45 -99 48
-110 33 -125 -14 -14 -17 -12 -38 13 -17 22 -30 27 -64 27 -36 0 -44 -4 -54
-25 -12 -27 -35 -33 -44 -11 -5 14 55 172 81 213 9 13 21 23 27 21 6 -2 32
-53 59 -113z m186 74 l38 -41 31 37 c23 27 37 36 55 33 24 -3 24 -4 24 -118 0
-104 -2 -115 -19 -118 -27 -6 -36 15 -36 83 l0 60 -27 -34 -27 -34 -28 34 -28
33 0 -61 c0 -68 -17 -96 -45 -73 -19 16 -22 209 -3 228 18 18 24 15 65 -29z
m801 29 c8 -8 12 -49 12 -119 0 -89 -3 -108 -16 -113 -35 -13 -44 12 -44 118
0 94 8 126 30 126 3 0 11 -5 18 -12z m188 -63 c26 -30 52 -55 56 -55 5 0 8 25
7 55 -3 59 8 80 34 69 15 -5 17 -23 17 -119 0 -78 -4 -116 -12 -121 -7 -5 -35
18 -75 62 l-63 69 0 -56 c0 -59 -16 -86 -45 -75 -12 4 -15 27 -15 119 0 63 3
117 6 120 11 11 42 -12 90 -68z m1560 60 c32 -13 34 -16 22 -35 -13 -20 -28
-21 -72 -4 -22 8 -66 -39 -66 -72 0 -53 52 -80 101 -53 15 7 24 7 35 -2 23
-19 16 -36 -22 -54 -31 -14 -43 -15 -75 -6 -111 33 -121 181 -15 227 40 17 49
17 92 -1z m632 -101 c2 -89 0 -114 -12 -123 -8 -7 -20 -10 -26 -6 -11 7 -14
227 -3 239 4 4 14 5 23 4 12 -3 16 -23 18 -114z m580 -3 c2 -75 -1 -118 -8
-125 -9 -8 -29 8 -76 59 l-63 70 -1 -67 c0 -60 -2 -68 -19 -68 -27 0 -31 18
-31 136 0 97 1 104 20 104 12 0 39 -25 72 -67 l53 -67 3 59 c3 75 8 87 29 83
16 -3 18 -18 21 -117z m-5287 90 c18 -14 24 -29 24 -61 0 -53 -30 -80 -86 -80
-37 0 -38 -1 -41 -37 -2 -30 -7 -38 -23 -38 -19 0 -20 8 -23 104 -1 58 0 111
2 118 9 21 119 17 147 -6z m248 9 c31 -16 46 -65 31 -100 -7 -17 -19 -34 -27
-39 -13 -7 -13 -12 1 -40 9 -17 14 -36 11 -41 -12 -19 -35 -10 -50 20 -21 41
-62 42 -67 3 -2 -20 -9 -28 -23 -28 -19 0 -20 8 -23 104 -1 58 0 111 2 118 6
16 117 18 145 3z m569 1 c8 -5 12 -17 10 -27 -3 -16 -11 -19 -55 -16 -44 3
-53 1 -67 -19 -22 -31 -20 -65 4 -89 24 -24 80 -27 80 -5 0 8 -9 15 -20 15
-14 0 -20 7 -20 24 0 21 6 25 41 31 22 4 42 5 45 3 10 -11 6 -109 -6 -123 -8
-10 -30 -15 -66 -15 -45 0 -59 5 -86 29 -30 27 -33 35 -33 86 0 51 3 59 33 86
26 23 41 29 80 29 26 0 53 -4 60 -9z m259 -13 c29 -27 30 -76 2 -112 l-21 -26
21 -34 c20 -32 20 -34 4 -41 -13 -5 -27 4 -49 29 -38 44 -54 46 -54 7 0 -26
-14 -41 -41 -41 -5 0 -9 54 -9 120 l0 120 62 0 c50 0 66 -4 85 -22z m748 -9
l26 -32 33 32 c23 22 41 32 57 29 24 -3 24 -5 24 -118 0 -104 -2 -115 -19
-118 -27 -6 -36 15 -36 82 l0 60 -31 -30 -31 -29 -25 30 -25 30 5 -37 c3 -21
3 -54 0 -74 -5 -29 -10 -34 -27 -32 -20 3 -21 10 -24 107 -1 58 0 111 2 118 9
23 43 14 71 -18z m241 6 l25 -26 31 26 c17 15 40 25 52 23 20 -3 21 -9 21
-118 0 -108 -1 -115 -20 -115 -18 0 -20 8 -23 68 -2 37 -5 67 -7 67 -2 0 -20
-9 -39 -19 -42 -24 -72 -18 -91 20 -16 29 -20 81 -8 92 13 13 34 7 59 -18z
m819 11 c16 -12 17 -16 6 -30 -10 -12 -23 -15 -46 -10 -52 10 -75 -9 -75 -61
0 -39 4 -46 29 -60 32 -16 61 -11 61 10 0 7 -9 15 -20 18 -30 8 -26 45 7 53
41 11 58 -6 61 -65 3 -51 3 -52 -34 -67 -31 -13 -42 -13 -77 -2 -55 18 -82 57
-82 120 0 43 4 53 33 79 25 22 42 29 75 29 24 0 52 -6 62 -14z m405 -6 c0 -16
-8 -19 -62 -22 -57 -3 -63 -5 -66 -25 -3 -20 1 -23 32 -23 32 0 36 -3 36 -25
0 -20 -5 -25 -24 -25 -27 0 -51 -24 -41 -40 4 -7 30 -10 64 -9 53 3 56 2 56
-22 0 -23 -2 -24 -80 -24 l-80 0 -3 118 -3 117 86 0 c78 0 85 -2 85 -20z m237
-12 c20 -21 27 -39 30 -80 5 -77 -26 -109 -120 -123 -72 -11 -77 -3 -77 127
l0 110 70 -4 c60 -3 74 -8 97 -30z m157 -20 c3 -29 7 -69 9 -88 2 -28 7 -37
30 -45 43 -15 57 11 57 107 0 77 0 78 25 78 25 0 25 -1 25 -88 0 -97 -10 -121
-59 -142 -23 -9 -38 -9 -66 0 -52 17 -66 46 -73 145 l-5 85 26 0 c23 0 26 -4
31 -52z m653 -53 c57 -110 61 -123 36 -132 -11 -4 -23 3 -37 20 -17 21 -30 27
-62 27 -34 0 -43 -4 -52 -26 -9 -18 -18 -24 -35 -22 -27 4 -27 5 25 136 30 78
44 102 56 100 10 -2 40 -46 69 -103z m248 85 c0 -10 -12 -16 -37 -18 l-37 -3
-3 -97 c-3 -89 -5 -97 -23 -97 -18 0 -20 8 -23 98 l-3 97 -39 0 c-34 0 -40 3
-40 20 0 20 5 21 103 18 83 -2 102 -6 102 -18z m384 -1 c63 -59 50 -168 -26
-204 -120 -57 -214 123 -109 207 31 26 106 24 135 -3z"/>
<path d="M4530 6721 c-5 -11 -10 -65 -10 -120 0 -77 4 -103 16 -115 20 -20 29
-20 49 1 14 13 16 34 13 120 -3 90 -6 107 -22 119 -26 19 -33 18 -46 -5z"/>
<path d="M4902 6718 c-19 -19 -16 -198 4 -226 39 -56 74 -8 74 105 0 99 -11
133 -43 133 -13 0 -28 -5 -35 -12z"/>
<path d="M5639 6721 c-22 -18 -24 -26 -24 -121 0 -89 3 -103 19 -116 25 -18
31 -18 50 2 23 22 23 216 0 238 -19 20 -17 20 -45 -3z"/>
<path d="M4530 6191 c-14 -28 -13 -204 2 -219 20 -20 48 -14 58 14 16 42 12
176 -6 202 -19 27 -40 28 -54 3z"/>
<path d="M5290 6194 c-17 -20 -25 -161 -11 -197 15 -38 40 -46 63 -18 24 31
26 175 2 209 -18 26 -36 28 -54 6z"/>
<path d="M5630 6191 c-5 -11 -10 -59 -10 -106 0 -92 10 -125 38 -125 34 0 42
21 42 118 0 100 -10 132 -40 132 -11 0 -24 -9 -30 -19z"/>
<path d="M5956 6194 c-12 -12 -16 -37 -16 -105 0 -96 10 -129 38 -129 34 0 42
21 42 118 0 122 -21 160 -64 116z"/>
<path d="M4909 5654 c-18 -22 -24 -153 -9 -198 9 -28 17 -36 36 -36 33 0 44
32 44 125 0 41 -4 85 -10 99 -11 30 -41 34 -61 10z"/>
<path d="M4541 5161 c-43 -27 -37 -229 7 -246 34 -13 52 29 52 122 0 46 -4 92
-10 102 -12 23 -33 32 -49 22z"/>
<path d="M4914 5155 c-15 -10 -20 -30 -22 -94 -5 -98 1 -127 30 -142 18 -10
24 -8 40 11 14 17 18 40 18 100 0 115 -23 157 -66 125z"/>
<path d="M5301 5161 c-17 -11 -31 -69 -31 -133 0 -96 30 -138 70 -98 17 17 20
34 20 99 0 44 -4 91 -9 104 -11 27 -32 39 -50 28z"/>
<path d="M5634 5156 c-13 -10 -18 -31 -20 -94 -4 -81 6 -130 29 -144 17 -11
24 -10 41 8 12 12 16 37 16 105 0 50 -4 98 -10 108 -13 26 -35 32 -56 17z"/>
<path d="M5950 5141 c-16 -32 -13 -183 6 -209 18 -25 36 -28 53 -8 16 19 16
203 0 222 -16 20 -47 17 -59 -5z"/>
<path d="M4924 4370 c-51 -21 -54 -35 -54 -313 l0 -258 25 -24 c35 -36 88 -34
126 4 l29 29 0 247 c0 267 -4 290 -55 313 -30 14 -42 14 -71 2z"/>
<path d="M5469 4351 l-29 -29 0 -260 c0 -247 1 -261 21 -286 29 -37 95 -37
133 0 l26 27 0 253 c0 268 -4 293 -47 313 -40 18 -73 13 -104 -18z"/>
<path d="M7659 3016 c-126 -52 -202 -137 -243 -275 -33 -112 -14 -227 55 -330
47 -70 95 -111 176 -149 52 -24 69 -27 163 -27 98 0 110 3 171 32 121 60 206
180 217 308 4 58 2 65 -21 89 -26 26 -29 26 -170 26 -131 0 -147 -2 -171 -21
-70 -55 4 -163 99 -145 19 4 40 4 45 1 20 -12 -24 -65 -74 -90 -115 -57 -235
-12 -292 110 -38 80 -26 166 33 243 58 77 196 96 282 39 22 -15 54 -27 71 -27
43 0 80 39 80 85 0 119 -256 199 -421 131z"/>
<path d="M2285 3006 c-13 -13 -26 -39 -30 -57 -3 -19 -5 -175 -3 -347 l3 -314
29 -24 28 -25 234 3 c228 3 234 4 256 26 33 32 32 106 -1 133 -21 17 -41 19
-192 19 l-168 0 -3 281 -3 281 -28 24 c-38 32 -90 32 -122 0z"/>
<path d="M3004 3020 c-53 -21 -54 -29 -54 -380 0 -305 1 -327 20 -357 11 -18
30 -35 43 -38 12 -3 128 -5 256 -3 l233 3 24 28 c29 34 32 85 5 118 -19 23
-23 24 -210 27 l-191 3 0 65 0 64 134 0 c126 0 137 2 160 23 39 33 44 77 13
113 l-25 29 -141 3 -141 4 0 69 0 69 183 0 c204 0 221 5 233 64 7 42 -7 71
-46 91 -23 12 -72 15 -252 14 -123 0 -233 -4 -244 -9z"/>
<path d="M4001 3013 c-11 -10 -67 -112 -124 -228 -167 -337 -211 -437 -209
-470 4 -43 38 -75 82 -75 47 0 75 21 105 81 l25 49 170 0 170 0 24 -49 c35
-69 50 -81 100 -81 53 0 96 37 96 82 0 15 -24 77 -54 136 -29 59 -97 202 -150
317 -55 117 -108 220 -122 233 -30 27 -83 29 -113 5z m100 -391 l38 -82 -84 0
c-47 0 -85 3 -85 8 0 18 76 160 84 158 6 -1 27 -39 47 -84z"/>
<path d="M4659 3015 c-15 -8 -29 -21 -32 -29 -12 -30 -9 -683 2 -705 15 -27
43 -41 83 -41 68 1 88 40 88 171 l0 89 69 0 69 0 72 -107 c98 -146 105 -153
155 -153 58 0 95 30 95 76 0 27 -15 57 -62 124 l-61 89 41 40 c63 62 76 94 77
186 0 116 -39 187 -135 243 -44 26 -49 27 -240 30 -156 2 -200 -1 -221 -13z
m377 -192 c13 -14 27 -37 30 -50 8 -29 -13 -81 -37 -93 -10 -6 -65 -10 -123
-10 l-106 0 0 90 0 90 105 0 c102 0 107 -1 131 -27z"/>
<path d="M5528 3001 l-33 -29 0 -340 0 -340 24 -26 c37 -39 100 -37 135 5 l26
31 0 201 1 202 22 -30 c12 -16 60 -75 107 -131 47 -56 120 -145 163 -198 58
-71 86 -98 111 -104 48 -14 82 -4 111 30 l25 30 0 329 c0 395 -1 399 -96 399
-24 0 -43 -8 -59 -25 l-25 -24 0 -216 c0 -125 -4 -214 -9 -211 -5 3 -60 72
-121 153 -244 320 -247 323 -315 323 -24 0 -45 -9 -67 -29z"/>
<path d="M6517 3010 c-15 -12 -31 -38 -37 -58 -6 -22 -10 -163 -10 -338 0
-296 0 -302 23 -335 35 -53 96 -58 142 -12 24 25 25 27 27 224 l3 198 164
-204 c91 -113 175 -215 188 -227 32 -30 106 -30 136 0 31 32 37 121 30 447 -6
274 -7 280 -29 302 -31 31 -84 31 -121 -1 l-28 -24 -5 -213 -5 -212 -74 99
c-147 197 -273 355 -291 364 -31 17 -86 11 -113 -10z"/>
<path d="M3076 1658 c-23 -32 -20 -65 9 -93 29 -30 49 -31 75 -5 27 27 28 95
1 110 -32 17 -69 12 -85 -12z"/>
<path d="M3925 1631 c-8 -25 1 -41 21 -41 11 0 14 6 9 23 -11 34 -22 41 -30
18z"/>
<path d="M2567 1683 c-4 -3 -7 -19 -7 -35 0 -24 4 -28 29 -28 43 0 58 23 32
49 -21 21 -42 27 -54 14z"/>
<path d="M2817 1683 c-4 -3 -7 -19 -7 -35 0 -34 21 -45 56 -30 28 13 33 56 8
66 -21 8 -49 8 -57 -1z"/>
<path d="M3642 1682 c-7 -2 -12 -17 -12 -33 0 -26 3 -29 34 -29 26 0 36 5 41
20 3 11 4 24 1 29 -7 10 -47 19 -64 13z"/>
<path d="M6080 1680 c-7 -4 -10 -31 -8 -71 3 -61 4 -64 30 -67 55 -6 88 65 53
115 -15 22 -56 35 -75 23z"/>
<path d="M6921 1627 c-14 -37 -14 -37 8 -37 27 0 32 11 16 40 l-13 25 -11 -28z"/>
<path d="M7540 1683 c-43 -15 -55 -88 -20 -123 27 -27 46 -25 77 6 20 20 24
31 19 57 -3 18 -16 40 -27 50 -22 18 -25 19 -49 10z"/>
</g>
</svg>
